# Blender 4.5.3 LTS
# www.blender.org
mtllib floor.mtl
o Cube
v 1704.322632 0.291525 -295.310455
v 1704.322632 -0.291525 -295.310455
v 1704.322632 0.291525 295.310455
v 1704.322632 -0.291525 295.310455
v -1704.322632 0.291525 -295.310455
v -1704.322632 -0.291525 -295.310455
v -1704.322632 0.291525 295.310455
v -1704.322632 -0.291525 295.310455
vn -0.0000 1.0000 -0.0000
vn -0.0000 -0.0000 1.0000
vn -1.0000 -0.0000 -0.0000
vn -0.0000 -1.0000 -0.0000
vn 1.0000 -0.0000 -0.0000
vn -0.0000 -0.0000 -1.0000
vt 0.978457 0.520089
vt 0.978466 0.520089
vt 0.978466 0.523608
vt 0.978457 0.523608
vt 0.978448 0.523608
vt 0.978457 0.525577
vt 0.978448 0.525577
vt 0.978448 0.524543
vt 0.978457 0.524543
vt 0.978457 0.519671
vt 0.978448 0.519671
vt 0.978444 0.520089
vt 0.978448 0.520089
vt 0.978444 0.523608
s 0
usemtl Material
f 1/1/1 5/2/1 7/3/1 3/4/1
f 4/5/2 3/4/2 7/6/2 8/7/2
f 8/8/3 7/9/3 5/10/3 6/11/3
f 6/12/4 2/13/4 4/5/4 8/14/4
f 2/13/5 1/1/5 3/4/5 4/5/5
f 6/11/6 5/10/6 1/1/6 2/13/6
