# Blender 4.5.3 LTS
# www.blender.org
mtllib wall.mtl
o Cube
v -0.542809 -342.794006 810.809998
v -0.542809 342.794006 810.809998
v -0.542809 -342.794006 -810.809998
v -0.542809 342.794006 -810.809998
v 0.542809 -342.794006 810.809998
v 0.542809 342.794006 810.809998
v 0.542809 -342.794006 -810.809998
v 0.542809 342.794006 -810.809998
vn -1.0000 -0.0000 -0.0000
vn -0.0000 -0.0000 -1.0000
vn 1.0000 -0.0000 -0.0000
vn -0.0000 -0.0000 1.0000
vn -0.0000 -1.0000 -0.0000
vn -0.0000 1.0000 -0.0000
vt 0.978252 0.520866
vt 0.978245 0.520866
vt 0.978245 0.522835
vt 0.978252 0.522835
vt 0.978245 0.524803
vt 0.978252 0.524803
vt 0.978245 0.525222
vt 0.978252 0.525222
vt 0.978245 0.525640
vt 0.978252 0.525640
vt 0.978245 0.524803
vt 0.978245 0.525222
s 0
usemtl Material.001
f 1/1/1 2/2/1 4/3/1 3/4/1
f 3/4/2 4/3/2 8/5/2 7/6/2
f 7/6/3 8/5/3 6/7/3 5/8/3
f 5/8/4 6/7/4 2/9/4 1/10/4
f 3/11/5 7/6/5 5/8/5 1/12/5
f 8/5/6 4/5/6 2/7/6 6/7/6
